<svg width="1707" height="489" viewBox="0 0 1707 489" fill="none" xmlns="http://www.w3.org/2000/svg">
<path d="M643.467 23.3333L620.667 45.8666L620 70.9333L619.333 96L575.733 97.2C541.2 98.1333 531.6 98 530 96.6666C528.4 95.3333 528 90.8 528 70.8V46.6666L506 24.9333C490.8 9.99997 482.933 3.33331 480.933 3.33331C478.933 3.33331 471.333 9.99997 456 25.3333L434 47.3333L433.333 72.4L432.667 97.3333H386H339.333L338.667 71.7333L338 46L316 24C303.867 11.8666 293.067 1.99997 292 1.99997C290.933 1.99997 279.867 12 267.6 24.4L245.333 46.6666V70.6666C245.333 83.8666 244.8 95.4666 244.267 96.4C243.333 97.6 233.067 98 197.2 97.7333L151.333 97.3333L150.667 71.7333L150 46L128 24C115.867 11.8666 105.067 1.99997 104 1.99997C102.933 1.99997 91.7333 12.2666 79.3333 24.6666L56.6666 47.3333L56 72.4L55.3333 97.3333L33.3333 97.7333C14.5333 98 11.0666 98.4 9.73329 100.267C7.33329 103.467 7.19996 179.333 9.59996 181.733C10.6666 182.8 17.6 183.333 32 183.333C43.3333 183.333 53.4666 183.867 54.4 184.4C55.7333 185.333 56 203.6 55.7333 271.467L55.3333 357.333L29.3333 358.4C14.9333 359.067 2.66662 360.133 1.73329 360.933C-0.666711 362.933 -0.800044 440.667 1.59996 443.067C2.66662 444.133 10.4 444.667 27.4666 444.667C40.8 444.667 52.6666 445.067 53.8666 445.467C55.7333 446.133 56 449.2 56 465.867C56 479.333 56.5333 486 57.6 487.067C60 489.467 147.333 489.333 148.933 486.933C149.467 486.133 150.267 476.533 150.4 465.6L150.933 446L197.733 446.267L244.667 446.667L245.067 465.867C245.2 477.333 246 485.867 246.933 486.933C248 488.267 257.333 488.667 291.333 488.667C315.067 488.667 335.333 488.267 336.533 487.867C338.4 487.2 338.667 484.133 338.667 468.667C338.667 458.533 339.067 449.333 339.467 448.133C340.133 446.267 345.6 446 386.8 446H433.333L434 448.933C434.4 450.667 434.8 460.133 435.067 470L435.333 488L479.867 488.4C511.6 488.667 524.933 488.267 526.133 487.2C527.6 486 528 481.2 528 467.467C528 457.467 528.667 448.4 529.333 447.333C530.4 445.6 536.933 445.333 574.933 445.333H619.333L620 466L620.667 486.667H666.667H712.667L713.6 467.6C714.133 457.067 714.8 447.6 715.2 446.533C715.733 444.933 723.6 444.667 761.867 444.667H808L808.667 447.6C809.067 449.333 809.467 458.8 809.733 468.667L810 486.667H856H902L902.4 467.2C902.667 452.8 903.2 447.2 904.533 446.133C905.733 445.067 919.733 444.8 951.467 444.933L996.667 445.333L997.333 464.667C997.733 475.333 998.533 484.8 999.067 485.733C1000.67 488.133 1088.4 488.133 1090.4 485.6C1091.33 484.533 1092.13 476 1092.27 464.533L1092.67 445.333H1138.67H1184.67L1185.33 466L1186 486.667H1232H1278L1278.27 468.667C1278.53 458.8 1278.93 449.333 1279.33 447.6L1280 444.667H1326.67H1373.33V462.533C1373.33 472.4 1373.87 482 1374.67 483.867L1376 487.333H1421.2C1461.2 487.333 1466.53 487.067 1467.2 485.2C1467.6 484 1468 474.8 1468 464.533C1468 446.533 1468.13 446 1471.07 445.333C1472.67 444.933 1493.87 444.8 1518 444.933L1562 445.333L1562.4 464.533C1562.53 476 1563.33 484.533 1564.27 485.6C1566.4 488.133 1653.6 488.133 1655.73 485.6C1656.67 484.533 1657.47 476 1657.6 464.533L1658 445.333L1680.13 444.667C1696.13 444.133 1702.93 443.467 1704.53 442.133C1706.4 440.533 1706.67 435.867 1706.67 400.533C1706.67 362.533 1706.53 360.667 1704.13 359.333C1702.67 358.667 1692.53 358 1681.07 358C1669.87 358 1659.87 357.467 1658.93 356.933C1657.6 356 1657.33 337.733 1657.6 269.867L1658 184L1680.27 183.333C1692.4 182.933 1702.93 182.133 1703.6 181.6C1705.07 180.133 1705.07 99.8666 1703.6 98.4C1702.93 97.8666 1692.4 97.0667 1680.27 96.6666L1658 96L1657.33 71.0667L1656.67 46L1634.67 24C1620.8 9.99997 1611.73 1.99997 1610 1.99997C1608.27 1.99997 1599.2 9.99997 1585.33 24L1563.33 46L1562.67 71.0667L1562 96L1515.07 96.4L1468 96.6666V71.7333V46.8L1445.07 23.7333C1432.4 11.0666 1421.47 0.666626 1420.67 0.666626C1420 0.666626 1408.93 11.0666 1396.4 23.6L1373.33 46.6666L1373.07 71.3333L1372.67 96L1326.53 96.4L1280.27 96.6666L1279.87 70.6666L1279.33 44.6666L1258 23.3333C1246.27 11.6 1235.6 1.59998 1234.13 1.19998C1232.27 0.533295 1226.4 5.59998 1208.53 23.4666L1185.33 46.6666V70C1185.33 82.8 1184.8 94.1333 1184.27 95.0667C1183.33 96.4 1173.33 96.8 1138.8 96.8C1114.4 96.8 1094 96.4 1093.2 96C1092.53 95.4666 1092 84.8 1092 71.0667V46.8L1069.73 24.4C1055.87 10.5333 1046.4 1.99997 1044.8 1.99997C1043.2 1.99997 1033.73 10.4 1020.13 24L998 45.8666L997.333 70.9333L996.667 96L949.733 96.4L902.667 96.6666V71.7333V46.8L879.733 23.7333C867.067 11.0666 856.133 0.666626 855.333 0.666626C854.533 0.666626 843.6 11.0666 830.933 23.7333L808 46.8V71.7333V96.6666H761.467H714.8L714.4 70.6666L714 44.5333L691.867 22.6666C679.733 10.5333 669.067 0.666626 668 0.666626C666.933 0.666626 655.867 10.8 643.467 23.3333ZM1184.27 185.067C1184.8 186 1185.33 224.533 1185.33 270.933C1185.33 352.933 1185.2 355.333 1182.8 356.667C1179.73 358.267 1096.27 358.533 1093.6 356.933C1092.27 356 1092 337.733 1092.27 269.867L1092.67 184L1114.67 183.333C1147.47 182.4 1183.07 183.2 1184.27 185.067ZM619.733 269.467C620 340.4 619.733 355.2 618.133 356.533C616.133 358.133 532.133 359.067 529.467 357.467C528.4 356.8 528 332.267 528 271.333C528 191.6 528.133 186 530.4 184.8C531.867 183.867 548.267 183.467 576 183.733L619.333 184L619.733 269.467ZM807.733 184.933C808.933 186.133 809.333 206.933 809.333 270.133C809.333 316.133 808.933 354.667 808.533 355.867C807.867 357.733 802.4 358 761.333 358C720.267 358 714.8 357.733 714.133 355.867C713.733 354.667 713.333 316.133 713.333 270.133C713.333 206.933 713.733 186.133 714.933 184.933C717.2 182.667 805.467 182.667 807.733 184.933ZM996.667 186.267C997.067 188 997.2 227.067 997.067 273.333L996.667 357.333L950.133 357.733C913.733 358 903.333 357.6 902.4 356.4C900.8 353.733 901.067 189.067 902.667 185.867C904 183.467 906 183.333 950 183.333H996L996.667 186.267ZM1373.07 271.067L1373.33 358L1326.4 357.733L1279.33 357.333L1278.93 273.333C1278.8 227.067 1278.93 188 1279.33 186.267L1280 183.333L1326.4 183.6L1372.67 184L1373.07 271.067ZM1561.07 184.933C1562.27 186.133 1562.67 206.933 1562.67 270.133C1562.67 316.133 1562.27 354.667 1561.87 355.867C1561.2 357.733 1555.73 358 1514.67 358C1473.6 358 1468.13 357.733 1467.47 355.867C1467.07 354.667 1466.67 316.133 1466.67 270.133C1466.67 206.933 1467.07 186.133 1468.27 184.933C1470.53 182.667 1558.8 182.667 1561.07 184.933ZM245.067 270.533C245.2 332.267 244.933 356.267 243.867 357.467C242.667 358.933 233.6 359.333 197.2 359.333H152L150.667 355.867C149.2 352.133 148.8 192.8 150.133 187.6L150.933 184.667L197.867 184.933L244.667 185.333L245.067 270.533ZM432.667 272V358.667H386H339.333L338.933 273.333C338.8 226.4 338.933 187.2 339.333 186.267C339.733 184.933 349.867 184.667 386.267 184.933L432.667 185.333V272Z" fill="#E5C185"/>
</svg>
